<svg xmlns="http://www.w3.org/2000/svg" xmlns:xl="http://www.w3.org/1999/xlink" version="1.1" viewBox="0 0 1e3 230" width="1000pt" height="230pt"><style>.style0{fill:	none;}.style1{fill:	#9BAABF;}.style2{stroke:	#9BAABF;stroke-linecap:	round;}</style><metadata xmlns:dc="http://purl.org/dc/elements/1.1/"><dc:date>2013-08-10 23:06Z</dc:date><!-- Produced by OmniGraffle Professional 5.4.4 --></metadata><defs/><g class="style0"><title>Canvas 1</title><g><title>Layer 1</title><path d="M 133.3 137.9 C 133.3 137.9 168.7 112.2 212.2 111.3 C 255.7 110.3 290.5 135.1 290.5 135.1 L 283.1 135.6 C 283.1 135.6 244.5 110 212 113.4 C 179.3 114.7 157.5 126.5 134.9 138.9 C 133.3 137.9 133.3 137.9 133.3 137.9 Z" class="style1"/><path d="M 133.3 137.9 C 133.3 137.9 168.7 112.2 212.2 111.3 C 255.7 110.3 290.5 135.1 290.5 135.1 L 283.1 135.6 C 283.1 135.6 244.5 110 212 113.4 C 179.3 114.7 157.5 126.5 134.9 138.9 C 133.3 137.9 133.3 137.9 133.3 137.9 Z" class="style2"/><path d="M -0 230.4 L 1000 230.4 L 1000 122 C 1000 122 991 114 991 112.9 C 991 111.9 978.7 112.9 978.7 112.9 L 971.7 120 L 963.3 120 L 955.4 112.1 L 955.4 100.7 L 949 100.7 L 949 123.8 L 946.6 123.8 L 946.6 115.5 L 940.1 115.5 L 940.1 124.2 L 937.7 124.2 L 935.5 122.1 L 935.5 119.2 L 936.5 119.2 L 936.5 115.7 L 935.3 115.7 L 935.3 116.7 L 934.6 116.7 L 934.6 115.8 L 933.9 115.8 L 933.9 116.7 L 933.1 116.7 L 933.1 115.9 L 932.3 115.9 L 932.3 116.7 L 931.5 116.7 L 931.5 116 L 930.7 116 L 930.7 116.8 L 930 116.8 L 930 116 L 928.4 116 L 928.4 119.7 L 929.2 119.7 L 929.2 122.3 L 926.4 122.3 L 926.4 120 L 923.3 120 L 923.3 118.8 L 921.4 118.8 L 921.4 119.9 L 920 119.9 L 920 121.7 L 916.2 121.7 L 916.2 86.9 L 913.7 86.9 L 913.7 85.8 L 911.2 85.8 L 911.2 84.9 L 905.1 84.9 C 898.9 81.3 895.2 86 895.2 86 L 895.2 88.9 L 894.1 88.9 L 894.1 117.5 L 891.3 114.6 L 891.3 102.6 L 888.8 100.1 L 888.8 83.6 L 887 83.6 L 887 82 L 885.2 82 L 885.2 80.4 L 884 80.4 L 884 79.6 L 878.9 79.6 L 878.9 80.5 L 876.8 80.5 L 874.6 82.7 L 873.5 82.7 L 872.5 83.7 L 872.5 84.9 L 872 84.9 L 872 98.4 L 865.5 98.4 L 865.5 94.1 L 863.1 94.1 L 863.3 90 L 862.5 94.2 L 858.9 94.2 L 858.7 90.3 L 858.6 94.3 L 854.7 94.5 L 854.7 93.6 L 853.6 93.6 L 853.6 92.9 L 854.6 92.9 L 854.6 91.9 L 853.4 91.9 L 853.4 91.3 L 854.5 91.3 L 854.5 90.4 L 853.4 90.4 L 853.4 89.8 L 854.5 89.8 L 854.5 88.9 L 853.3 88.9 L 853.3 88.2 L 854.3 88.2 L 854.3 87.2 L 853.3 87.2 L 853.3 86.7 L 854.3 86.7 L 854.3 85.5 L 853.1 85.5 L 853.1 84.9 L 854.1 84.9 L 854.1 83.9 L 853.1 83.9 L 853.1 83.5 L 854.3 83.5 L 854.3 82.1 L 853.1 82.1 L 853.1 77.5 L 850.9 77.5 L 850.9 59.7 L 840.9 59.7 L 840.9 58.5 L 839.4 58.5 L 839.4 59.7 L 829.9 59.7 L 829.9 61.2 L 820.1 61.2 L 821.4 59.3 L 819.4 61.3 L 818.4 61.3 L 818.4 60.1 L 815.8 60.1 L 815.8 61.8 L 812.1 61.8 L 812.1 68.1 L 810.4 68.1 L 810.4 83.7 L 805.3 82.2 L 805.3 80.1 L 799.9 80.1 L 799.9 71.3 L 799.7 80.2 L 795.4 80.2 L 794.9 68.8 L 794.9 80.3 L 790.4 80.3 L 790.4 84.4 L 788.5 84.4 L 788.5 75.1 L 783.3 69.8 L 783.3 68.6 L 773.2 68.6 L 773.2 72.4 L 772.1 73.4 L 772.1 115.2 L 770.8 115.2 L 770.8 122 L 766.6 122 L 766.6 101.5 L 765.1 101.5 L 765.1 99.5 L 762.2 96.6 L 757.2 96.6 L 757.2 35.7 L 756.3 35.7 L 756.3 33.2 L 757 33.2 L 757 31.4 L 749 28.3 L 749 26.2 L 748.2 26.2 L 748.2 24.3 L 747 24.3 L 747 26.2 L 746.2 26.2 L 746.2 27.9 L 726.2 30.8 L 726.2 33.3 L 726.9 33.3 L 726.9 35.8 L 726.2 35.8 L 726.2 74.3 C 716.7 73.2 712.8 75.4 712.8 75.4 L 712.8 128.7 L 710.1 128.7 L 710.1 28.9 L 707.8 28.9 L 707.8 20.3 L 705.9 20.3 L 705.9 14.5 L 702.4 14.5 L 702.4 13.1 L 699.4 13.1 L 699.4 12.2 L 698.3 12.2 L 698.3 13.1 L 697.4 13.1 L 697.4 12.4 L 696.5 12.4 L 696.5 13.2 L 695.8 13.2 L 695.8 12.5 L 694.6 12.5 L 694.6 13.2 L 693.6 13.2 L 692.5 0 L 692.1 14.6 L 689.6 14.6 L 689.6 16.6 L 686.9 13.9 L 686.9 15.5 L 683.9 15.5 L 683.9 16.9 L 681.4 14.4 L 681.4 16.8 C 681.4 16.8 679.9 16.8 679.4 16.8 C 678.9 16.8 679.4 21.2 679.4 21.2 L 677.6 21.2 L 677.6 30 L 676.2 30 L 676.2 72.5 L 675.3 72.5 L 675.3 67.3 L 669.3 67.3 L 669.3 66.3 L 662.8 66.3 L 662.8 62.3 L 658.3 61.1 L 651.9 62.1 L 651.9 31.2 L 647.3 33.9 L 646.7 10.2 L 645.5 34.8 L 637 40.4 L 632.2 40.4 L 632.2 41.6 L 627.8 41.6 L 627.8 43.5 L 628.3 42.5 L 634.8 42.5 L 634.8 44 C 628.3 44.5 623.2 48.2 623.2 48.2 C 621.4 49.3 617.7 53.6 617.7 53.6 L 615.2 53.6 L 616.7 79.1 L 614.7 79.1 L 614.7 77.9 L 613.1 77.9 L 613.1 32.5 L 611.7 32.5 L 611.7 28.2 L 609.9 28.2 L 609.9 19.2 L 609.2 8.3 L 608.4 19.4 L 607.7 19.4 L 607.7 20.7 L 606.3 20.7 L 606.3 22.8 L 602 23.8 L 602 28.4 L 600 28.9 L 600 31 L 588.4 33.4 L 588.4 37.8 C 583.8 38.1 584.3 39.1 584.3 39.1 L 584.3 91.6 L 585 91.6 L 585 94.7 L 580.6 95 L 580.6 98.1 L 570.5 98.8 L 570.5 102.6 L 567.5 102.6 L 567.5 61.2 L 565.5 59.2 L 563.4 59.2 L 563.4 33.3 L 563.2 15.8 L 562.4 33.1 L 556 31.9 L 555.5 14.7 L 554.9 38.8 L 550 50.2 L 547.6 50.2 L 547.6 51.2 L 543.4 51.2 L 543.4 52.8 L 539.9 52.8 L 539.9 71.9 L 533 86.9 L 533 115.3 L 529.8 115.3 L 529.8 84.6 L 509.9 82.5 L 506.1 83 L 506 61.4 L 506.1 60.4 L 509.4 59.7 L 509.9 51.9 L 508.3 51.3 L 508.3 50.4 L 509.7 50.4 L 509.7 49.8 L 507.8 49.8 L 507.8 42.8 L 505.7 42.8 L 504.8 32.5 L 504.4 32.5 L 503.7 42.9 L 501.6 43 L 501.7 50 L 500.5 50.3 L 500.4 51.8 L 499.2 51.9 L 499.9 59.5 L 502.6 60.2 L 502.6 61.6 L 502.8 100.6 L 500.7 100.6 L 500.7 102 L 499.1 102 L 499.1 103 L 487.5 103 L 487.5 91.5 L 485.4 91.5 L 485.4 87.3 L 482.6 87.3 L 482.6 84 L 481 84 L 481 83.2 L 479.4 83.2 L 479.4 81.5 L 472.7 81.3 L 472.7 86.2 L 466.8 87.1 L 466.8 89.8 L 465.3 89.8 L 455.6 91 L 455.6 106.5 L 453.4 106.5 L 453.4 107.7 L 452.5 107.7 L 452.5 106.7 L 450.4 106.7 L 450.4 121.6 L 447.8 121.6 L 447.8 111.4 L 442.2 111.4 L 442.2 107.8 L 440.6 107.8 L 440.6 105 L 439.7 105 L 439.7 106.8 L 436.8 106.8 L 436.5 106.5 L 432 106.5 L 432 108.6 L 430.2 108.6 L 430.2 103.8 L 425.6 103.8 L 425.6 108.4 L 421.6 108.4 L 421.6 111.6 L 419.3 111.6 L 419.3 105.8 L 418.3 105.8 L 418.3 106.9 L 417.6 106.2 L 417.6 105 L 415.9 105 L 415.9 103.3 L 411 103.3 L 411 120.5 L 409 120.5 L 409 111.3 L 407.6 111.3 L 406.9 102.9 L 406.9 111.4 L 404 111.4 L 404 115.6 L 401.8 115.6 L 401.8 121.2 L 398.4 121.2 L 398.4 122.2 L 395.9 122.2 L 395.9 123.7 L 395.3 124.2 L 395.3 126.7 L 391.8 126.7 L 391.8 125.2 L 386.8 125.2 L 386.8 123.1 L 382.7 123.1 L 382.7 122.5 L 379.6 122.5 L 378.9 121.9 L 377.1 121.9 L 377.1 122.8 L 374.3 122.8 L 374.3 125.1 L 371.6 125.1 L 370.9 125.8 L 368.6 125.8 L 367.9 125.1 L 367.9 124.4 L 367.6 124 L 367.6 123.1 L 366.4 123.1 L 366.4 122.5 L 365.4 122.5 L 365.4 121.8 L 362.6 121.8 L 362.6 121 L 358.9 121 L 358.9 121.8 L 356.9 121.8 L 356.9 123.3 L 354.3 123.3 L 354.3 122 L 352.3 122 L 352.3 121.2 L 348.6 121.2 L 348.6 122 L 347.4 122 L 347.4 124.3 L 346.6 124.3 L 346.6 126.4 L 346 126.4 L 346 128.8 L 344.9 128.8 L 344.9 133.6 L 329.4 133.6 L 329.4 125 L 328.8 125 L 328.8 121.2 L 328 121.2 L 328 120.2 L 326.9 120.2 L 326.9 119 L 320.3 119 L 320.3 120.6 L 314.5 120.6 L 314.5 121.7 L 313.5 121.7 L 313.5 122.7 L 313 123.2 L 313 126.4 L 312.2 126.4 L 312.2 128.1 C 312.2 128.1 261.8 102.7 212.1 103.8 C 162.3 104.9 119.1 129.7 119.1 129.7 L 106.9 129.7 L 109.5 123.6 C 107.2 123.8 102.1 125.4 102.1 125.4 L 102.1 122.8 C 98.6 122.8 93.5 124.6 93.5 124.6 L 97.8 112.9 C 92.7 114 89.2 116.5 89.2 116.5 L 89.4 111.9 C 63.6 117.8 58.8 136 58.8 136 L 55.2 135 C 47.4 128.7 28.4 131.7 28.4 131.7 L 32.2 142.3 L -0 144.1 L -0 230.4 Z M 345.3 141.2 L 345.3 151.5 L 332.7 151.7 L 330.8 141 L 345.3 141.2 Z M 121.7 142.1 L 129.3 141.1 L 124.4 145 L 121.7 142.1 Z M 170.1 159.8 L 152.8 160.3 L 152.8 158.7 L 142.9 158.7 L 142.9 156.8 L 136.4 156.8 L 136.4 155.3 L 127.2 155.3 L 127.2 151 L 125.3 151 L 125.3 148.2 L 126.9 146.1 L 126.2 145.9 L 131.5 141.3 L 170.1 139.3 L 170.1 159.8 Z M 303.7 153.7 L 303.2 156.3 L 178.5 159.1 L 178.5 139.2 C 178.5 139.2 285.2 137.5 285.6 137.4 C 285.9 137.3 308 153.7 308 153.7 L 303.7 153.7 Z M 311.4 149.5 L 293.2 137 L 311.6 137 L 311.4 149.5 Z M 120.8 130.1 C 120.8 130.1 163.9 107.7 211.8 105.8 C 259.7 103.9 311.8 130.3 311.8 130.3 L 311.6 133.3 L 121 138.1 L 120.8 136.8 L 125.7 130.9 L 120.8 130.1" class="style1"/><path d="M 210.8 135.6 L 210.5 135.6 L 209 104.7 L 209.4 104.7 L 210.8 135.6 Z" class="style1"/><path d="M 210.8 135.6 L 210.5 135.6 L 209 104.7 L 209.4 104.7 L 210.8 135.6 Z" class="style2"/><path d="M 205.5 136 L 205.1 136 L 203.7 105.1 L 204.1 105 L 205.5 136 Z" class="style1"/><path d="M 205.5 136 L 205.1 136 L 203.7 105.1 L 204.1 105 L 205.5 136 Z" class="style2"/><path d="M 203.8 135.8 L 203.4 135.8 L 202 104.9 L 202.4 104.8 L 203.8 135.8 Z" class="style1"/><path d="M 203.8 135.8 L 203.4 135.8 L 202 104.9 L 202.4 104.8 L 203.8 135.8 Z" class="style2"/><path d="M 198.5 136.7 L 198.1 136.8 L 196.7 105.8 L 197 105.8 L 198.5 136.7 Z" class="style1"/><path d="M 198.5 136.7 L 198.1 136.8 L 196.7 105.8 L 197 105.8 L 198.5 136.7 Z" class="style2"/><path d="M 196.6 136.7 L 196.2 136.8 L 194.8 105.8 L 195.1 105.8 L 196.6 136.7 Z" class="style1"/><path d="M 196.6 136.7 L 196.2 136.8 L 194.8 105.8 L 195.1 105.8 L 196.6 136.7 Z" class="style2"/><path d="M 191.3 137.3 L 190.9 137.3 L 189.4 106.4 L 189.8 106.4 L 191.3 137.3 Z" class="style1"/><path d="M 191.3 137.3 L 190.9 137.3 L 189.4 106.4 L 189.8 106.4 L 191.3 137.3 Z" class="style2"/><path d="M 189.3 136 L 188.9 136 L 187.6 107.9 L 188 107.9 L 189.3 136 Z" class="style1"/><path d="M 189.3 136 L 188.9 136 L 187.6 107.9 L 188 107.9 L 189.3 136 Z" class="style2"/><path d="M 183.6 136.2 L 183.2 136.2 L 181.9 108.1 L 182.3 108 L 183.6 136.2 Z" class="style1"/><path d="M 183.6 136.2 L 183.2 136.2 L 181.9 108.1 L 182.3 108 L 183.6 136.2 Z" class="style2"/><path d="M 181.9 136.4 L 181.5 136.4 L 180.2 108.3 L 180.5 108.2 L 181.9 136.4 Z" class="style1"/><path d="M 181.9 136.4 L 181.5 136.4 L 180.2 108.3 L 180.5 108.2 L 181.9 136.4 Z" class="style2"/><path d="M 175.9 136.6 L 175.6 136.6 L 174.3 110.4 L 174.7 110.3 L 175.9 136.6 Z" class="style1"/><path d="M 175.9 136.6 L 175.6 136.6 L 174.3 110.4 L 174.7 110.3 L 175.9 136.6 Z" class="style2"/><path d="M 174.4 136.8 L 174 136.8 L 172.8 110.6 L 173.2 110.5 L 174.4 136.8 Z" class="style1"/><path d="M 174.4 136.8 L 174 136.8 L 172.8 110.6 L 173.2 110.5 L 174.4 136.8 Z" class="style2"/><path d="M 168.5 137.5 L 168.1 137.5 L 166.9 111.3 L 167.3 111.3 L 168.5 137.5 Z" class="style1"/><path d="M 168.5 137.5 L 168.1 137.5 L 166.9 111.3 L 167.3 111.3 L 168.5 137.5 Z" class="style2"/><path d="M 167.2 137.7 L 166.8 137.7 L 165.6 111.5 L 166 111.5 L 167.2 137.7 Z" class="style1"/><path d="M 167.2 137.7 L 166.8 137.7 L 165.6 111.5 L 166 111.5 L 167.2 137.7 Z" class="style2"/><path d="M 160.9 138.7 L 160.5 138.7 L 159.4 113.8 L 159.8 113.8 L 160.9 138.7 Z" class="style1"/><path d="M 160.9 138.7 L 160.5 138.7 L 159.4 113.8 L 159.8 113.8 L 160.9 138.7 Z" class="style2"/><path d="M 159.6 138.8 L 159.2 138.9 L 158.1 114.4 L 158.4 114.3 L 159.6 138.8 Z" class="style1"/><path d="M 159.6 138.8 L 159.2 138.9 L 158.1 114.4 L 158.4 114.3 L 159.6 138.8 Z" class="style2"/><path d="M 153.5 139.2 L 153.1 139.2 L 152.1 116.4 L 152.4 116.4 L 153.5 139.2 Z" class="style1"/><path d="M 153.5 139.2 L 153.1 139.2 L 152.1 116.4 L 152.4 116.4 L 153.5 139.2 Z" class="style2"/><path d="M 146.2 138.7 L 145.8 138.7 L 144.9 118.9 L 145.3 118.9 L 146.2 138.7 Z" class="style1"/><path d="M 146.2 138.7 L 145.8 138.7 L 144.9 118.9 L 145.3 118.9 L 146.2 138.7 Z" class="style2"/><path d="M 138.5 139.8 L 138.2 139.8 L 137.3 122 L 137.7 121.9 L 138.5 139.8 Z" class="style1"/><path d="M 138.5 139.8 L 138.2 139.8 L 137.3 122 L 137.7 121.9 L 138.5 139.8 Z" class="style2"/><path d="M 131.1 139.2 L 130.8 139.2 L 130.1 125 L 130.5 125 L 131.1 139.2 Z" class="style1"/><path d="M 131.1 139.2 L 130.8 139.2 L 130.1 125 L 130.5 125 L 131.1 139.2 Z" class="style2"/><path d="M 123.5 143.2 L 123.2 143.2 L 122.5 129 L 122.9 129 L 123.5 143.2 Z" class="style1"/><path d="M 123.5 143.2 L 123.2 143.2 L 122.5 129 L 122.9 129 L 123.5 143.2 Z" class="style2"/><path d="M 130.8 140 L 130.6 140.2 L 122.2 128.7 L 122.3 128.6 L 130.8 140 Z" class="style1"/><path d="M 130.8 140 L 130.6 140.2 L 122.2 128.7 L 122.3 128.6 L 130.8 140 Z" class="style2"/><path d="M 138.4 136.4 L 138.2 136.5 L 129.8 125.1 L 129.9 124.9 L 138.4 136.4 Z" class="style1"/><path d="M 138.4 136.4 L 138.2 136.5 L 129.8 125.1 L 129.9 124.9 L 138.4 136.4 Z" class="style2"/><path d="M 144.8 131.5 L 144.6 131.6 L 137.6 122 L 137.7 121.9 L 144.8 131.5 Z" class="style1"/><path d="M 144.8 131.5 L 144.6 131.6 L 137.6 122 L 137.7 121.9 L 144.8 131.5 Z" class="style2"/><path d="M 152 128.2 L 151.8 128.3 L 144.8 118.8 L 145 118.7 L 152 128.2 Z" class="style1"/><path d="M 152 128.2 L 151.8 128.3 L 144.8 118.8 L 145 118.7 L 152 128.2 Z" class="style2"/><path d="M 158.7 124.6 L 158.5 124.7 L 152 116 L 152.2 115.8 L 158.7 124.6 Z" class="style1"/><path d="M 158.7 124.6 L 158.5 124.7 L 152 116 L 152.2 115.8 L 158.7 124.6 Z" class="style2"/><path d="M 160.2 124.2 L 160 124.3 L 153.5 115.6 L 153.7 115.5 L 160.2 124.2 Z" class="style1"/><path d="M 160.2 124.2 L 160 124.3 L 153.5 115.6 L 153.7 115.5 L 160.2 124.2 Z" class="style2"/><path d="M 166.1 122.5 L 165.9 122.6 L 159.4 113.9 L 159.6 113.7 L 166.1 122.5 Z" class="style1"/><path d="M 166.1 122.5 L 165.9 122.6 L 159.4 113.9 L 159.6 113.7 L 166.1 122.5 Z" class="style2"/><path d="M 167.4 121.9 L 167.2 122.1 L 160.8 113.3 L 160.9 113.2 L 167.4 121.9 Z" class="style1"/><path d="M 167.4 121.9 L 167.2 122.1 L 160.8 113.3 L 160.9 113.2 L 167.4 121.9 Z" class="style2"/><path d="M 172.4 118.8 L 172.2 118.9 L 167.3 112.2 L 167.5 112.1 L 172.4 118.8 Z" class="style1"/><path d="M 172.4 118.8 L 172.2 118.9 L 167.3 112.2 L 167.5 112.1 L 172.4 118.8 Z" class="style2"/><path d="M 173.7 118.1 L 173.6 118.2 L 168.6 111.5 L 168.8 111.4 L 173.7 118.1 Z" class="style1"/><path d="M 173.7 118.1 L 173.6 118.2 L 168.6 111.5 L 168.8 111.4 L 173.7 118.1 Z" class="style2"/><path d="M 179.6 117.1 L 179.5 117.2 L 174.5 110.5 L 174.7 110.4 L 179.6 117.1 Z" class="style1"/><path d="M 179.6 117.1 L 179.5 117.2 L 174.5 110.5 L 174.7 110.4 L 179.6 117.1 Z" class="style2"/><path d="M 181.5 116.2 L 181.4 116.3 L 176.4 109.6 L 176.6 109.5 L 181.5 116.2 Z" class="style1"/><path d="M 181.5 116.2 L 181.4 116.3 L 176.4 109.6 L 176.6 109.5 L 181.5 116.2 Z" class="style2"/><path d="M 186.4 114.5 L 186.2 114.6 L 181.9 108.8 L 182.1 108.7 L 186.4 114.5 Z" class="style1"/><path d="M 186.4 114.5 L 186.2 114.6 L 181.9 108.8 L 182.1 108.7 L 186.4 114.5 Z" class="style2"/><path d="M 188.5 114.1 L 188.3 114.2 L 184 108.4 L 184.2 108.3 L 188.5 114.1 Z" class="style1"/><path d="M 188.5 114.1 L 188.3 114.2 L 184 108.4 L 184.2 108.3 L 188.5 114.1 Z" class="style2"/><path d="M 193.2 113.6 L 193.1 113.7 L 188.8 107.9 L 188.9 107.7 L 193.2 113.6 Z" class="style1"/><path d="M 193.2 113.6 L 193.1 113.7 L 188.8 107.9 L 188.9 107.7 L 193.2 113.6 Z" class="style2"/><path d="M 196.1 113.2 L 195.9 113.3 L 191.6 107.5 L 191.8 107.4 L 196.1 113.2 Z" class="style1"/><path d="M 196.1 113.2 L 195.9 113.3 L 191.6 107.5 L 191.8 107.4 L 196.1 113.2 Z" class="style2"/><path d="M 200.1 112.2 L 199.9 112.3 L 195.6 106.5 L 195.8 106.4 L 200.1 112.2 Z" class="style1"/><path d="M 200.1 112.2 L 199.9 112.3 L 195.6 106.5 L 195.8 106.4 L 200.1 112.2 Z" class="style2"/><path d="M 202.9 111.8 L 202.8 112 L 198.5 106.2 L 198.6 106 L 202.9 111.8 Z" class="style1"/><path d="M 202.9 111.8 L 202.8 112 L 198.5 106.2 L 198.6 106 L 202.9 111.8 Z" class="style2"/><path d="M 207.3 111.7 L 207.1 111.8 L 202.8 106 L 203 105.8 L 207.3 111.7 Z" class="style1"/><path d="M 207.3 111.7 L 207.1 111.8 L 202.8 106 L 203 105.8 L 207.3 111.7 Z" class="style2"/><path d="M 210.1 111.3 L 210 111.4 L 205.7 105.6 L 205.8 105.5 L 210.1 111.3 Z" class="style1"/><path d="M 210.1 111.3 L 210 111.4 L 205.7 105.6 L 205.8 105.5 L 210.1 111.3 Z" class="style2"/><path d="M 211.7 111 L 211.6 110.9 L 216.5 105.5 L 216.6 105.7 L 211.7 111 Z" class="style1"/><path d="M 211.7 111 L 211.6 110.9 L 216.5 105.5 L 216.6 105.7 L 211.7 111 Z" class="style2"/><path d="M 218.4 111.2 L 218.2 111 L 223.1 105.7 L 223.3 105.9 L 218.4 111.2 Z" class="style1"/><path d="M 218.4 111.2 L 218.2 111 L 223.1 105.7 L 223.3 105.9 L 218.4 111.2 Z" class="style2"/><path d="M 219.5 111.6 L 219.4 111.4 L 224.3 106.1 L 224.4 106.2 L 219.5 111.6 Z" class="style1"/><path d="M 219.5 111.6 L 219.4 111.4 L 224.3 106.1 L 224.4 106.2 L 219.5 111.6 Z" class="style2"/><path d="M 225.4 111.7 L 225.3 111.6 L 230.2 106.3 L 230.3 106.4 L 225.4 111.7 Z" class="style1"/><path d="M 225.4 111.7 L 225.3 111.6 L 230.2 106.3 L 230.3 106.4 L 225.4 111.7 Z" class="style2"/><path d="M 226.7 112.3 L 226.6 112.2 L 231.5 106.9 L 231.6 107 L 226.7 112.3 Z" class="style1"/><path d="M 226.7 112.3 L 226.6 112.2 L 231.5 106.9 L 231.6 107 L 226.7 112.3 Z" class="style2"/><path d="M 232.6 112.7 L 232.5 112.6 L 238.6 106 L 238.7 106.1 L 232.6 112.7 Z" class="style1"/><path d="M 232.6 112.7 L 232.5 112.6 L 238.6 106 L 238.7 106.1 L 232.6 112.7 Z" class="style2"/><path d="M 234 113.3 L 233.8 113.1 L 239.5 106.9 L 239.7 107.1 L 234 113.3 Z" class="style1"/><path d="M 234 113.3 L 233.8 113.1 L 239.5 106.9 L 239.7 107.1 L 234 113.3 Z" class="style2"/><path d="M 239.7 114 L 239.5 113.9 L 246 106.8 L 246.2 106.9 L 239.7 114 Z" class="style1"/><path d="M 239.7 114 L 239.5 113.9 L 246 106.8 L 246.2 106.9 L 239.7 114 Z" class="style2"/><path d="M 241.2 114.4 L 241 114.3 L 246.8 108 L 247 108.1 L 241.2 114.4 Z" class="style1"/><path d="M 241.2 114.4 L 241 114.3 L 246.8 108 L 247 108.1 L 241.2 114.4 Z" class="style2"/><path d="M 246.9 115.7 L 246.7 115.6 L 252.6 109.2 L 252.8 109.3 L 246.9 115.7 Z" class="style1"/><path d="M 246.9 115.7 L 246.7 115.6 L 252.6 109.2 L 252.8 109.3 L 246.9 115.7 Z" class="style2"/><path d="M 248 116.9 L 247.9 116.8 L 255.1 109 L 255.2 109.1 L 248 116.9 Z" class="style1"/><path d="M 248 116.9 L 247.9 116.8 L 255.1 109 L 255.2 109.1 L 248 116.9 Z" class="style2"/><path d="M 252.8 118.8 L 252.6 118.7 L 259.8 110.9 L 260 111 L 252.8 118.8 Z" class="style1"/><path d="M 252.8 118.8 L 252.6 118.7 L 259.8 110.9 L 260 111 L 252.8 118.8 Z" class="style2"/><path d="M 254.9 119.4 L 254.7 119.3 L 261.9 111.4 L 262 111.6 L 254.9 119.4 Z" class="style1"/><path d="M 254.9 119.4 L 254.7 119.3 L 261.9 111.4 L 262 111.6 L 254.9 119.4 Z" class="style2"/><path d="M 260 121.1 L 259.9 121 L 267 113.2 L 267.2 113.3 L 260 121.1 Z" class="style1"/><path d="M 260 121.1 L 259.9 121 L 267 113.2 L 267.2 113.3 L 260 121.1 Z" class="style2"/><path d="M 261.7 121.9 L 261.6 121.7 L 268.7 113.9 L 268.9 114 L 261.7 121.9 Z" class="style1"/><path d="M 261.7 121.9 L 261.6 121.7 L 268.7 113.9 L 268.9 114 L 261.7 121.9 Z" class="style2"/><path d="M 266.9 123.6 L 266.7 123.4 L 273.9 115.6 L 274 115.8 L 266.9 123.6 Z" class="style1"/><path d="M 266.9 123.6 L 266.7 123.4 L 273.9 115.6 L 274 115.8 L 266.9 123.6 Z" class="style2"/><path d="M 269.1 124.1 L 269 124 L 276.2 116.2 L 276.3 116.3 L 269.1 124.1 Z" class="style1"/><path d="M 269.1 124.1 L 269 124 L 276.2 116.2 L 276.3 116.3 L 269.1 124.1 Z" class="style2"/><path d="M 273.9 126.7 L 273.7 126.5 L 281.5 117.2 L 281.7 117.3 L 273.9 126.7 Z" class="style1"/><path d="M 273.9 126.7 L 273.7 126.5 L 281.5 117.2 L 281.7 117.3 L 273.9 126.7 Z" class="style2"/><path d="M 276 127.6 L 275.8 127.5 L 283.6 118.2 L 283.8 118.3 L 276 127.6 Z" class="style1"/><path d="M 276 127.6 L 275.8 127.5 L 283.6 118.2 L 283.8 118.3 L 276 127.6 Z" class="style2"/><path d="M 280.5 130.1 L 280.4 129.9 L 288.9 119.8 L 289.1 119.9 L 280.5 130.1 Z" class="style1"/><path d="M 280.5 130.1 L 280.4 129.9 L 288.9 119.8 L 289.1 119.9 L 280.5 130.1 Z" class="style2"/><path d="M 282.9 131.6 L 282.7 131.5 L 291.9 120.7 L 292 120.8 L 282.9 131.6 Z" class="style1"/><path d="M 282.9 131.6 L 282.7 131.5 L 291.9 120.7 L 292 120.8 L 282.9 131.6 Z" class="style2"/><path d="M 286.5 134.9 L 286.4 134.7 L 297 122 L 297.2 122.2 L 286.5 134.9 Z" class="style1"/><path d="M 286.5 134.9 L 286.4 134.7 L 297 122 L 297.2 122.2 L 286.5 134.9 Z" class="style2"/><path d="M 288.8 136.6 L 288.6 136.5 L 299.3 123.8 L 299.5 123.9 L 288.8 136.6 Z" class="style1"/><path d="M 288.8 136.6 L 288.6 136.5 L 299.3 123.8 L 299.5 123.9 L 288.8 136.6 Z" class="style2"/><path d="M 293.4 138 L 293.3 137.9 L 303.9 125.2 L 304.1 125.4 L 293.4 138 Z" class="style1"/><path d="M 293.4 138 L 293.3 137.9 L 303.9 125.2 L 304.1 125.4 L 293.4 138 Z" class="style2"/><path d="M 295.9 139.8 L 295.7 139.6 L 306.4 126.9 L 306.5 127.1 L 295.9 139.8 Z" class="style1"/><path d="M 295.9 139.8 L 295.7 139.6 L 306.4 126.9 L 306.5 127.1 L 295.9 139.8 Z" class="style2"/><path d="M 299.1 142.4 L 299 142.3 L 309.6 129.6 L 309.8 129.7 L 299.1 142.4 Z" class="style1"/><path d="M 299.1 142.4 L 299 142.3 L 309.6 129.6 L 309.8 129.7 L 299.1 142.4 Z" class="style2"/><path d="M 302 144.1 L 301.8 144 L 312.5 131.3 L 312.6 131.4 L 302 144.1 Z" class="style1"/><path d="M 302 144.1 L 301.8 144 L 312.5 131.3 L 312.6 131.4 L 302 144.1 Z" class="style2"/><path d="M 304.1 146 L 303.9 145.9 L 314.6 133.2 L 314.7 133.3 L 304.1 146 Z" class="style1"/><path d="M 304.1 146 L 303.9 145.9 L 314.6 133.2 L 314.7 133.3 L 304.1 146 Z" class="style2"/><path d="M 306.3 147.7 L 306.2 147.6 L 316.8 134.9 L 317 135 L 306.3 147.7 Z" class="style1"/><path d="M 306.3 147.7 L 306.2 147.6 L 316.8 134.9 L 317 135 L 306.3 147.7 Z" class="style2"/><path d="M 308.8 149.6 L 308.7 149.5 L 319.3 136.8 L 319.5 136.9 L 308.8 149.6 Z" class="style1"/><path d="M 308.8 149.6 L 308.7 149.5 L 319.3 136.8 L 319.5 136.9 L 308.8 149.6 Z" class="style2"/><path d="M 212.9 135.4 L 212.5 135.4 L 211.1 104.5 L 211.5 104.5 L 212.9 135.4 Z" class="style1"/><path d="M 212.9 135.4 L 212.5 135.4 L 211.1 104.5 L 211.5 104.5 L 212.9 135.4 Z" class="style2"/><path d="M 217.7 135.4 L 217.3 135.4 L 215.8 104.5 L 216.2 104.5 L 217.7 135.4 Z" class="style1"/><path d="M 217.7 135.4 L 217.3 135.4 L 215.8 104.5 L 216.2 104.5 L 217.7 135.4 Z" class="style2"/><path d="M 220 135.4 L 219.6 135.4 L 218.1 104.5 L 218.5 104.5 L 220 135.4 Z" class="style1"/><path d="M 220 135.4 L 219.6 135.4 L 218.1 104.5 L 218.5 104.5 L 220 135.4 Z" class="style2"/><path d="M 224.9 135.6 L 224.5 135.6 L 223.1 104.7 L 223.4 104.7 L 224.9 135.6 Z" class="style1"/><path d="M 224.9 135.6 L 224.5 135.6 L 223.1 104.7 L 223.4 104.7 L 224.9 135.6 Z" class="style2"/><path d="M 227.2 135.6 L 226.8 135.6 L 225.3 104.7 L 225.7 104.7 L 227.2 135.6 Z" class="style1"/><path d="M 227.2 135.6 L 226.8 135.6 L 225.3 104.7 L 225.7 104.7 L 227.2 135.6 Z" class="style2"/><path d="M 231.9 136.2 L 231.5 136.2 L 230.1 105.2 L 230.5 105.2 L 231.9 136.2 Z" class="style1"/><path d="M 231.9 136.2 L 231.5 136.2 L 230.1 105.2 L 230.5 105.2 L 231.9 136.2 Z" class="style2"/><path d="M 234.4 136 L 234 136 L 232.6 105.1 L 232.9 105 L 234.4 136 Z" class="style1"/><path d="M 234.4 136 L 234 136 L 232.6 105.1 L 232.9 105 L 234.4 136 Z" class="style2"/><path d="M 239.1 136.4 L 238.8 136.4 L 237.3 105.4 L 237.7 105.4 L 239.1 136.4 Z" class="style1"/><path d="M 239.1 136.4 L 238.8 136.4 L 237.3 105.4 L 237.7 105.4 L 239.1 136.4 Z" class="style2"/><path d="M 241.6 135.4 L 241.2 135.4 L 239.8 106.8 L 240.2 106.7 L 241.6 135.4 Z" class="style1"/><path d="M 241.6 135.4 L 241.2 135.4 L 239.8 106.8 L 240.2 106.7 L 241.6 135.4 Z" class="style2"/><path d="M 246.5 135.8 L 246.1 135.8 L 244.8 107.1 L 245.2 107.1 L 246.5 135.8 Z" class="style1"/><path d="M 246.5 135.8 L 246.1 135.8 L 244.8 107.1 L 245.2 107.1 L 246.5 135.8 Z" class="style2"/><path d="M 248.8 135.8 L 248.4 135.8 L 247.1 107.1 L 247.4 107.1 L 248.8 135.8 Z" class="style1"/><path d="M 248.8 135.8 L 248.4 135.8 L 247.1 107.1 L 247.4 107.1 L 248.8 135.8 Z" class="style2"/><path d="M 253 136 L 252.6 136 L 251.3 108.5 L 251.7 108.4 L 253 136 Z" class="style1"/><path d="M 253 136 L 252.6 136 L 251.3 108.5 L 251.7 108.4 L 253 136 Z" class="style2"/><path d="M 255.8 136.3 L 255.4 136.3 L 254.1 108.8 L 254.5 108.7 L 255.8 136.3 Z" class="style1"/><path d="M 255.8 136.3 L 255.4 136.3 L 254.1 108.8 L 254.5 108.7 L 255.8 136.3 Z" class="style2"/><path d="M 259.6 136.3 L 259.2 136.3 L 258 109.8 L 258.4 109.8 L 259.6 136.3 Z" class="style1"/><path d="M 259.6 136.3 L 259.2 136.3 L 258 109.8 L 258.4 109.8 L 259.6 136.3 Z" class="style2"/><path d="M 263.6 136.6 L 263.2 136.7 L 261.7 111.5 L 262.1 111.5 L 263.6 136.6 Z" class="style1"/><path d="M 263.6 136.6 L 263.2 136.7 L 261.7 111.5 L 262.1 111.5 L 263.6 136.6 Z" class="style2"/><path d="M 267.3 135 L 266.9 135.1 L 265.5 111.7 L 265.9 111.7 L 267.3 135 Z" class="style1"/><path d="M 267.3 135 L 266.9 135.1 L 265.5 111.7 L 265.9 111.7 L 267.3 135 Z" class="style2"/><path d="M 270.5 136.7 L 270.1 136.7 L 268.7 113.3 L 269.1 113.3 L 270.5 136.7 Z" class="style1"/><path d="M 270.5 136.7 L 270.1 136.7 L 268.7 113.3 L 269.1 113.3 L 270.5 136.7 Z" class="style2"/><path d="M 273.9 134.8 L 273.6 134.9 L 272.3 114.1 L 272.7 114 L 273.9 134.8 Z" class="style1"/><path d="M 273.9 134.8 L 273.6 134.9 L 272.3 114.1 L 272.7 114 L 273.9 134.8 Z" class="style2"/><path d="M 277.4 135.9 L 277.1 136 L 275.8 115.2 L 276.2 115.1 L 277.4 135.9 Z" class="style1"/><path d="M 277.4 135.9 L 277.1 136 L 275.8 115.2 L 276.2 115.1 L 277.4 135.9 Z" class="style2"/><path d="M 281 136.7 L 280.7 136.7 L 279.4 115.9 L 279.8 115.9 L 281 136.7 Z" class="style1"/><path d="M 281 136.7 L 280.7 136.7 L 279.4 115.9 L 279.8 115.9 L 281 136.7 Z" class="style2"/><path d="M 284.3 134.8 L 284 134.9 L 283 118.9 L 283.4 118.9 L 284.3 134.8 Z" class="style1"/><path d="M 284.3 134.8 L 284 134.9 L 283 118.9 L 283.4 118.9 L 284.3 134.8 Z" class="style2"/><path d="M 288.1 136 L 287.8 136 L 286.8 120.1 L 287.2 120 L 288.1 136 Z" class="style1"/><path d="M 288.1 136 L 287.8 136 L 286.8 120.1 L 287.2 120 L 288.1 136 Z" class="style2"/><path d="M 291.6 137.1 L 291.2 137.1 L 290.2 121.2 L 290.6 121.2 L 291.6 137.1 Z" class="style1"/><path d="M 291.6 137.1 L 291.2 137.1 L 290.2 121.2 L 290.6 121.2 L 291.6 137.1 Z" class="style2"/><path d="M 294.8 139.4 L 294.4 139.4 L 293.3 121 L 293.7 121 L 294.8 139.4 Z" class="style1"/><path d="M 294.8 139.4 L 294.4 139.4 L 293.3 121 L 293.7 121 L 294.8 139.4 Z" class="style2"/><path d="M 299 141.9 L 298.7 141.9 L 297.6 123.7 L 298 123.6 L 299 141.9 Z" class="style1"/><path d="M 299 141.9 L 298.7 141.9 L 297.6 123.7 L 298 123.6 L 299 141.9 Z" class="style2"/><path d="M 301.9 143.2 L 301.5 143.2 L 300.4 125 L 300.8 125 L 301.9 143.2 Z" class="style1"/><path d="M 301.9 143.2 L 301.5 143.2 L 300.4 125 L 300.8 125 L 301.9 143.2 Z" class="style2"/><path d="M 306.1 145.7 L 305.7 145.7 L 304.6 127.5 L 305 127.4 L 306.1 145.7 Z" class="style1"/><path d="M 306.1 145.7 L 305.7 145.7 L 304.6 127.5 L 305 127.4 L 306.1 145.7 Z" class="style2"/><rect x="209.2" y="97.6" width="0.3" height="6.1" class="style1"/><rect x="209.2" y="97.6" width="0.3" height="6.1" class="style2"/><rect x="211.1" y="97.6" width="0.3" height="6.1" class="style1"/><rect x="211.1" y="97.6" width="0.3" height="6.1" class="style2"/><path d="M 209.7 99.2 L 207.1 99.8 L 206.7 98.3 L 209.3 97.7 L 209.7 99.2 Z" class="style1"/><path d="M 209.7 99.2 L 207.1 99.8 L 206.7 98.3 L 209.3 97.7 L 209.7 99.2 Z" class="style2"/><path d="M 211.4 99.2 L 208.8 99.8 L 208.5 98.3 L 211.1 97.7 L 211.4 99.2 Z" class="style1"/><path d="M 211.4 99.2 L 208.8 99.8 L 208.5 98.3 L 211.1 97.7 L 211.4 99.2 Z" class="style2"/></g></g></svg>